<?xml version="1.0" encoding="UTF-8"?>
<svg id="Layer_2" data-name="Layer 2" xmlns="http://www.w3.org/2000/svg" viewBox="0 0 706.67 501.75">
  <defs>
    <style>
      .cls-1 {
        fill: gray;
      }
    </style>
  </defs>
  <g id="Layer_1-2" data-name="Layer 1">
    <g>
      <path class="cls-1" d="M463.7,394.94l-104.04,104.19c-3.49,3.5-9.16,3.5-12.65,0l-104.02-104.17c-3.8-3.81-3.36-10.02.83-13.4,29.96-24.17,68.07-38.69,109.51-38.69s79.64,14.45,109.54,38.68c4.17,3.38,4.61,9.59.82,13.39Z"/>
      <path class="cls-1" d="M704.03,154.25l-44.29,44.29c-3.44,3.44-8.95,3.44-12.46.07-76.29-73.14-179.91-118.09-293.94-118.09S135.68,125.48,59.39,198.61c-3.51,3.37-9.02,3.37-12.46-.07L2.64,154.25c-3.53-3.53-3.53-9.33.06-12.79C93.65,53.87,217.27,0,353.33,0s259.77,53.87,350.63,141.46c3.6,3.47,3.59,9.26.06,12.79Z"/>
      <path class="cls-1" d="M580.17,278.3l-44.42,44.49c-3.43,3.44-8.9,3.43-12.45.11-44.56-41.57-104.25-66.99-169.96-66.99s-125.4,25.41-169.96,66.91c-3.55,3.31-9.02,3.32-12.45-.12l-44.42-44.49c-3.49-3.5-3.55-9.23-.01-12.69,58.49-57.22,138.55-92.46,226.84-92.46s168.43,35.32,226.85,92.54c3.53,3.46,3.47,9.19-.02,12.69Z"/>
    </g>
  </g>
</svg>